inDegrees=yes
name=ik_S44_A11_T01
DataType=double
version=3
OpenSimVersion=4.3-2021-08-27-4bc7ad9
endheader
time	pelvis_tilt	pelvis_list	pelvis_rotation	pelvis_tx	pelvis_ty	pelvis_tz	hip_flexion_r	hip_adduction_r	hip_rotation_r	knee_angle_r	knee_angle_r_beta	ankle_angle_r	subtalar_angle_r	mtp_angle_r	hip_flexion_l	hip_adduction_l	hip_rotation_l	knee_angle_l	knee_angle_l_beta	ankle_angle_l	subtalar_angle_l	mtp_angle_l	lumbar_extension	lumbar_bending	lumbar_rotation	arm_flex_r	arm_add_r	arm_rot_r	elbow_flex_r	pro_sup_r	wrist_flex_r	wrist_dev_r	arm_flex_l	arm_add_l	arm_rot_l	elbow_flex_l	pro_sup_l	wrist_flex_l	wrist_dev_l
10.83999999999986	1.745223908645147	-1.392326812388989	47.24350900557416	0	0.9399999999999999	0	33.95599472236782	-9.647521201616161	-9.143135361737761	38.81605524352749	0.6774679666355641	0	0	0	33.95599472236782	-9.647521201616161	-9.143135361737761	38.81605524352749	0.6774679666355641	0	0	0	0.5457663755666562	-2.437082536771731	8.87925449173604	100.8591748033356	0.4996556721805059	35.06030568548971	13.74931633380598	74.99448826722396	0	0	1.408842082255229	-4.793372659626255	-5.345956322155797	3.989390700785923	94.74486188467193	0	0
10.85999999999986	1.744655042735916	-1.402410680054236	47.26072960066671	0	0.9399999999999999	0	33.97604185016574	-9.649265253617173	-9.146154841164323	38.83716659837301	0.6778364292871752	0	0	0	33.97604185016574	-9.649265253617173	-9.146154841164323	38.83716659837301	0.6778364292871752	0	0	0	0.5374230489000191	-2.443274236795177	8.862679482609547	100.8908121019431	0.4992278364757488	35.03782488180726	13.70039428234261	75.05313797722263	0	0	1.384338539004921	-4.802380243401224	-5.388749800308227	4.126765308426409	94.70073306993264	0	0
10.87999999999986	1.752295891482202	-1.404758764404617	47.28667389857209	0	0.9399999999999999	0	34.00563347776934	-9.651421692214669	-9.150251188598073	38.86890463485761	0.6783903625219496	0	0	0	34.00563347776934	-9.651421692214669	-9.150251188598073	38.86890463485761	0.6783903625219496	0	0	0	0.5405113837304978	-2.450241961912195	8.863944388042128	100.8661918089216	0.4131502946346062	34.99036334264459	13.74745721884513	75.06470408989728	0	0	1.356101206870725	-4.814121838126018	-5.376955195777708	4.13625121203554	94.69712919106601	0	0
10.89999999999986	1.766330548373293	-1.415736084730953	47.33659344158209	0	0.9399999999999999	0	34.02438690351993	-9.652849334974109	-9.152897590270355	38.88891866404411	0.6787396732278442	0	0	0	34.02438690351993	-9.652849334974109	-9.152897590270355	38.88891866404411	0.6787396732278442	0	0	0	0.5418836894670909	-2.467998826099874	8.874727749406533	100.8637738807646	0.3514446702903766	34.95222384475586	13.77916368455406	75.02423181057461	0	0	1.345470104897198	-4.831906268218543	-5.377796295167713	4.151309358819644	94.65933213728684	0	0
10.91999999999986	1.766194460574267	-1.437455434243302	47.35145487654265	0	0.9399999999999999	0	34.04405681694455	-9.654367073896454	-9.155689307538607	38.90997826144218	0.679107232541585	0	0	0	34.04405681694455	-9.654367073896454	-9.155689307538607	38.90997826144218	0.679107232541585	0	0	0	0.5257008397747968	-2.482533674106742	8.884586907358138	100.9295660717042	0.3062035379860144	34.80053375170986	13.67832880097177	75.31967609264582	0	0	1.386371537299562	-4.865059133733284	-5.333034323495954	4.167363140323079	94.62045864493795	0	0
10.93999999999986	1.773265608931944	-1.44950853509353	47.37545355444097	0	0.9399999999999999	0	34.07124448323759	-9.656833932560691	-9.15987281198716	38.93846973827705	0.6796045026211092	0	0	0	34.07124448323759	-9.656833932560691	-9.15987281198716	38.93846973827705	0.6796045026211092	0	0	0	0.5211314084680162	-2.49573553111504	8.878602050011462	100.9118356727733	0.248637496751181	34.79012510340423	13.84114135410957	75.34426293307324	0	0	1.342901292274813	-4.899029935325987	-5.355017925432569	4.382102118062176	94.60604154214933	0	0
10.95999999999986	1.783065434675369	-1.44045296528124	47.39108082337985	0	0.9399999999999999	0	34.08105457290808	-9.657442400294283	-9.161137820639482	38.94915132933969	0.6797909315545039	0	0	0	34.08105457290808	-9.657442400294283	-9.161137820639482	38.94915132933969	0.6797909315545039	0	0	0	0.5337916926709227	-2.496562391349622	8.851679880338029	100.889233620192	0.2904352500775635	34.79187912548826	13.76334037819734	75.09011150549961	0	0	1.278634137391968	-4.901113801695771	-5.39246686317837	4.252803058812212	94.64948730155761	0	0
10.97999999999985	1.796344200199669	-1.439660755066608	47.37471674684005	0	0.9399999999999999	0	34.08443121373553	-9.657801355471475	-9.161703595732067	38.95264333575859	0.6798518785640145	0	0	0	34.08443121373553	-9.657801355471475	-9.161703595732067	38.95264333575859	0.6798518785640145	0	0	0	0.543483832767962	-2.505845152279304	8.861140897120366	100.724084380706	0.2505437974105458	34.74084698092313	13.93123203375807	74.88379948730311	0	0	1.244206650162974	-4.909256445264293	-5.357638898956973	4.279626656791758	94.62807591550602	0	0
10.99999999999985	1.800719918234683	-1.439233328777402	47.38301150434743	0	0.9399999999999999	0	34.08808478076799	-9.658191070768742	-9.162317191655642	38.95640818103162	0.679917587509857	0	0	0	34.08808478076799	-9.658191070768742	-9.162317191655642	38.95640818103162	0.679917587509857	0	0	0	0.5465104400501647	-2.508688335892373	8.852120317569623	100.6597093724976	0.2471388329828571	34.40973253221635	13.97641643211441	75.12777109032365	0	0	1.235954541888031	-4.910446403518327	-5.336526884870805	4.292803887044925	94.59975824221991	0	0
11.01999999999985	1.802511104597581	-1.438576296595146	47.37152439416514	0	0.9399999999999999	0	34.10482817338402	-9.659561246046335	-9.164769691654355	38.9741282187934	0.6802268605123777	0	0	0	34.10482817338402	-9.659561246046335	-9.164769691654355	38.9741282187934	0.6802268605123777	0	0	0	0.5478052307197919	-2.509358004360609	8.843454969286038	100.6108409611063	0.2571046961551958	34.33671622065773	14.0182897562606	75.1370124982879	0	0	1.23002663492652	-4.932976154385367	-5.321437088612322	4.276617813513574	94.57181982340403	0	0
11.03999999999985	1.836373817719237	-1.4360685755952	47.36371374139271	0	0.9399999999999999	0	34.10647595817045	-9.659734358950017	-9.165043815863392	38.97584511225035	0.6802568259561074	0	0	0	34.10647595817045	-9.659734358950017	-9.165043815863392	38.97584511225035	0.6802568259561074	0	0	0	0.5728006086020626	-2.532653334560699	8.857211269257478	100.4649140191876	0.2133972409872076	34.38326641366883	14.0788291867806	75.02839578935553	0	0	1.200530854114259	-4.965614248928627	-5.308329045003411	4.265763704480949	94.60527392593175	0	0
